<svg width="134" height="134" viewBox="0 0 134 134" fill="none" xmlns="http://www.w3.org/2000/svg">
<path d="M40.5364 133.567C22.0835 126.605 7.39444 111.916 0.399658 93.4635C21.0176 96.6611 37.3055 112.949 40.5364 133.567Z" fill="#5250B4"/>
<path d="M134 69.0152C134 98.9595 114.948 124.44 88.3008 134C84.8367 86.8019 47.1648 49.1633 0 45.6992C9.55953 19.0524 35.0405 0 64.9848 0C103.09 0 134 30.9103 134 69.0152Z" fill="#5250B4"/>
<path d="M134 69.0152C134 98.9595 114.948 124.44 88.3008 134C84.8367 86.8019 47.1648 49.1633 0 45.6992C9.55953 19.0524 35.0405 0 64.9848 0C103.09 0 134 30.9103 134 69.0152Z" fill="#5250B4"/>
</svg>
